<svg xmlns="http://www.w3.org/2000/svg" width="65.455" height="65.673" viewBox="0 0 65.455 65.673">
  <g id="nust-logo" transform="translate(-287.999 -377.939)">
    <g id="Group_3687" data-name="Group 3687" transform="translate(288 377.94)">
      <path id="Path_4808" data-name="Path 4808" d="M320.048,377.94l-.6.01-.624.03-.644.049-.664.069-.683.084-.688.1-.7.119-.7.134-.7.149-.7.163-.693.178-.678.188-.668.2-.654.208-.629.223-.6.233-.574.238-.545.243-.5.252-.54.263-.545.247-.55.243-.545.258-.53.287-.8.475-.782.5-.763.515-.748.535-.733.555-.718.57-.7.589-.683.6-.669.624-.653.639-.634.654-.619.673-.6.688-.584.7-.569.718-.55.733-.535.753-.515.762-.5.777-.48.792-1.268,2.387-1.04,2.456-.817,2.516-.589,2.555-.376,2.585-.163,2.6.045,2.6.248,2.585.451,2.56.644,2.51.837,2.461,1.02,2.387,1.2,2.3,1.382,2.2,1.55,2.09,1.723,1.961,1.887,1.822,2.045,1.664,2.2,1.5,2.352,1.307.619.3.619.292.629.277.634.272.634.253.639.243.644.233.649.218.654.2.654.188.664.178.663.158.663.149.674.134.673.114.678.1.683.084.683.074.688.05.693.039,1.906.03,1.882-.074,1.847-.173,1.817-.272,1.788-.371,1.748-.461,1.708-.555,1.669-.649,1.624-.738,1.585-.827,1.53-.906,1.486-1,1.436-1.08,1.382-1.154,1.322-1.238,1.268-1.312,1.208-1.386,1.149-1.461,1.079-1.53,1.015-1.6.277-.47.272-.48.257-.49.257-.5.243-.5.238-.51.233-.515.218-.52.213-.525.2-.525.193-.535.183-.535.168-.54.163-.54.148-.54.139-.544.124-.545.114-.54.1-.545.089-.54.1-.708.094-.7.074-.7.064-.7.049-.7.04-.7.025-.7.01-.693v-.7l-.02-.7-.025-.693-.045-.693-.054-.7-.069-.693-.084-.693-.1-.7-.109-.7-.124-.7-.139-.7-.153-.7-.129-.54-.144-.53-.153-.53-.164-.52-.178-.52-.188-.515-.2-.51-.208-.505-.218-.505-.228-.5-.233-.5-.238-.49-.248-.49-.258-.485-.257-.485-.267-.48-.267-.475-.277-.475-.277-.475-.277-.47-.139-.223-.148-.218-.154-.213-.158-.213-.168-.2-.163-.208-.173-.2-.173-.2-.173-.2-.173-.2-.173-.2-.173-.2-.169-.2-.163-.2-.159-.208-.158-.213-.149-.213-.139-.218-.119-.183-.134-.178-.139-.168-.149-.168-.153-.159-.158-.158-.168-.154-.169-.153-.173-.149-.173-.148-.178-.144-.178-.143-.178-.144-.173-.149-.173-.144-.173-.149-.168-.149-.159-.148-.158-.158-.148-.159-.183-.193-.2-.193L341.4,385l-.218-.183-.228-.178-.233-.173-.243-.173-.248-.168-.248-.168-.253-.163-.258-.158-.257-.159-.253-.158-.258-.158-.253-.154-.247-.153-.248-.154-.238-.153-.233-.153-.223-.154-.4-.252-.426-.218-.436-.2-.446-.188-.441-.193-.426-.2-.669-.317-.669-.3-.678-.277-.678-.252-.688-.233-.688-.213-.693-.193-.7-.178-.7-.158-.7-.144-.713-.129-.708-.114-.718-.1-.718-.089-.718-.074-.723-.069-.728-.059-.723-.045-.733-.045-.728-.03-.569-.015Z" transform="translate(-288 -377.94)" fill="#00558f" stroke="#00558f" stroke-miterlimit="2.414" stroke-width="0.003" fill-rule="evenodd"/>
      <path id="Path_4809" data-name="Path 4809" d="M315.748,378.857l3-.322,2.956-.04,2.9.233,2.827.49,2.743.738,2.644.98,2.535,1.2,2.407,1.416,2.273,1.624L342.141,387l1.956,2,1.773,2.179,1.58,2.337,1.377,2.491,1.154,2.634.921,2.763.678,2.882.411,2.986.144,3.09-.025,1.223-.079,1.218-.129,1.218-.178,1.208-.223,1.2-.277,1.193-.317,1.179-.366,1.169-.406,1.154-.456,1.139-.49,1.119-.535,1.1-.579,1.079-.614,1.06-.649,1.035-.688,1.01-.723.985-.758.956-.792.926-.827.891-.465.461-.485.441-.5.426-.5.421-.5.421-.49.431-.54.471-.559.46-.584.441-.6.426-.619.411-.639.4-.654.381-.664.367-.678.347-.688.337-.693.317-.7.3-.708.282-.708.267-.713.252-.708.238-.713.218-.7.2-.7.183-.693.164-2.228.426-2.214.262-2.194.1-2.169-.05-2.139-.208-2.1-.352-2.06-.5-2.015-.634-1.961-.768-1.9-.9L304,437.842l-1.768-1.154-1.7-1.268-1.614-1.386-1.535-1.5-1.441-1.6-1.342-1.7-1.248-1.807-1.139-1.9-1.025-1.991-.317-.7-.3-.708-.272-.723-.253-.728-.228-.738-.208-.743-.188-.753-.168-.758-.149-.758-.129-.763-.109-.768-.094-.772-.079-.773-.059-.772-.045-.773-.03-.772-.015-.773v-.772l.015-.767.025-.763.069-1.114.119-1.1.169-1.1.208-1.094.258-1.084.3-1.08.337-1.065.376-1.055.416-1.04.451-1.03.485-1.01.52-1,.55-.975.579-.961.609-.936.639-.921.664-.9.688-.867.708-.847.733-.822.3-.317.307-.3.317-.292.317-.287.322-.282.327-.277.332-.272.332-.267.332-.272.332-.272.327-.273.327-.277.48-.4.5-.391.51-.376.525-.362.535-.352.545-.337.555-.327.569-.312.574-.3.579-.282.589-.277.594-.262.6-.248.6-.233.6-.223.609-.208.6-.2.609-.183.6-.168.6-.159,3.03-.609Z" transform="translate(-287.548 -377.486)" fill="#fff" stroke="#fff" stroke-miterlimit="2.414" stroke-width="0.003" fill-rule="evenodd"/>
      <path id="Path_4810" data-name="Path 4810" d="M319.317,379.078l-.56.015-.56.03-.56.035-.554.05-.56.06-.56.069-.56.079-.555.094-.555.1-.55.114-.55.124-.55.134-.54.144-.54.153-.535.168-.535.173-.525.188-.52.2-.515.208-2.441,1.134-2.308,1.307-2.164,1.471L300,386.743l-1.867,1.758-1.713,1.887-1.545,2L293.5,394.5l-1.2,2.2-1.02,2.283-.832,2.357-.639,2.417-.441,2.466-.238,2.5-.025,2.525.193,2.545.411,2.55.639,2.535.876,2.525,1.114,2.491.238.465.248.461.253.456.267.456.267.451.282.446.287.446.3.436.3.431.312.431.317.421.322.416.332.411.342.406.342.4.351.391.357.386.361.376.372.372.371.366.451.421.456.411.466.4.475.386.485.381.49.367.5.361.505.347.515.337.52.327.53.317.53.307.54.3.545.287.55.273.559.262.56.252.564.243.565.233.574.223.535.193.54.188.54.173.55.168.555.158.555.154.56.138.564.129.564.114.57.109.57.1.569.084.574.069.57.065.574.05.574.035.575.025.569.01.574,0,.57-.015.956-.054.961-.079.961-.1.966-.129.961-.159.961-.183.956-.213.956-.238.941-.267.936-.3.926-.322.916-.357.9-.381.882-.416.871-.44.847-.475.832-.505.807-.54.782-.565.763-.6.391-.327.386-.327.386-.337.376-.337.376-.342.371-.342.366-.352.362-.352.357-.356.351-.362.347-.366.342-.371.337-.376.332-.381.327-.386.322-.391.312-.4.312-.4.307-.411.3-.416.812-1.218.748-1.263.688-1.307.619-1.342.555-1.382.485-1.411.421-1.431.352-1.456.282-1.476.213-1.485.149-1.49.069-1.5,0-1.5-.069-1.49-.144-1.486-.218-1.466-.292-1.456-.361-1.431-.441-1.4-.52-1.377-.173-.426-.183-.436-.183-.436-.193-.436-.193-.436-.2-.44-.208-.436-.213-.431-.218-.436-.228-.426-.233-.426-.243-.416-.247-.411-.257-.406-.268-.4-.277-.386-.287-.381-.3-.367-.307-.361-.317-.347-.242-.263-.238-.277-.233-.282-.233-.287-.233-.292-.238-.287-.243-.277-.248-.267-.258-.253-.267-.233-.456-.371-.436-.357-.411-.342-.4-.327-.386-.312-.376-.3-.371-.292-.366-.282-.362-.277-.366-.272-.371-.262-.376-.258-.386-.258-.4-.258-.411-.257-.436-.258-.456-.257-.48-.263-.5-.267-.54-.273-.619-.3-.624-.282-.634-.263-.639-.248-.644-.228-.649-.213-.654-.193-.659-.183-.664-.163-.668-.144-.669-.134-.673-.119-.678-.1-.678-.084-.683-.074-.683-.06-.683-.045-.683-.035-.683-.02-.688,0-.555,0Z" transform="translate(-287.095 -377.013)" fill="#00558f" stroke="#00558f" stroke-miterlimit="2.414" stroke-width="0.003" fill-rule="evenodd"/>
      <path id="Path_4811" data-name="Path 4811" d="M307.02,411.285l-.282-.148-.3-.129-.272-.149-.168-.124-.109-.109-.05-.109,0-.134.03-.183.035-.119.044-.109.054-.094.069-.084.074-.074.089-.06.089-.054.1-.04.1-.035.1-.02.114-.015.109,0,.114,0,.109.01.109.02.109.025.2.074.1.084.005.129-.069.2-.1.144-.084-.04-.1-.144-.134-.144-.183-.124-.139-.054-.134.02-.168.079-.139.094-.094.1-.054.109-.01.109.025.109.064.1.094.1.129.089.188.1.2.089.193.094.188.1.168.129.139.153.1.2.035.119.02.114v.1l-.02.1-.03.094-.045.084-.054.074-.069.069-.074.064-.089.055-.089.049-.1.044-.1.035-.1.03-.1.025-.109.015-.1.015-.1,0-.1,0-.094-.005-.208-.04-.124-.064-.074-.129-.044-.218-.01-.267.069-.1.1.04.074.173.059.188.089.109.143.054.238.03h.129l.124-.02.114-.04.1-.059.089-.069.069-.084.045-.1.025-.1-.01-.114-.035-.119-.069-.124-.218-.208Z" transform="translate(-273.407 -352.126)" fill="#fff" stroke="#fff" stroke-miterlimit="2.414" stroke-width="0.003" fill-rule="evenodd"/>
      <path id="Path_4812" data-name="Path 4812" d="M305.351,409.87l-.025-.064-.144-.094-.168-.119-.04-.084.139.01.4.06.153.04.074.064.01.124-.04.208-.049.262-.055.406-.05.475-.035.47-.005.386.035.233.084.074.074.084-.094.119-.228-.03-.193-.035-.287-.015.015-.074.139-.124.094-.159.193-2.218Z" transform="translate(-274.165 -352.113)" fill="#fff" stroke="#fff" stroke-miterlimit="2.414" stroke-width="0.003" fill-rule="evenodd"/>
      <path id="Path_4813" data-name="Path 4813" d="M303.984,410.49l-.158.124-.005.124.134.2.926,1.2.139.084.168.134-.069.163-.149-.055-.168-.064-.372-.059-.114.02.01-.03v-.193l-.094-.287-.173-.277-.208-.263-.2-.233-.134-.163-.059-.129.01-.1.079-.114.158-.134.376-.282.4-.248.119-.084.025-.124-.064-.228.01-.015.04-.04.045-.01.064.02.193.059.2.025.233.02.089.035-.079.064-.248.159-1.129.7Z" transform="translate(-275.353 -352.193)" fill="#fff" stroke="#fff" stroke-miterlimit="2.414" stroke-width="0.003" fill-rule="evenodd"/>
      <path id="Path_4814" data-name="Path 4814" d="M309.316,409.335l.183.015.089.188.084.327.01.119-.089-.025-.139-.144-.178-.158-.188-.045-.253,0-.223.015-.084.064,0,.159.347,2.3-.025.144-.129.064-.144-.025-.064-.129-.317-2.2-.049-.158-.134-.064-.292-.015-.233.015-.109.064-.04.158-.094.208-.129-.054-.074-.2.064-.228.292-.144,1.911-.262Z" transform="translate(-272.416 -352.256)" fill="#fff" stroke="#fff" stroke-miterlimit="2.414" stroke-width="0.003" fill-rule="evenodd"/>
      <path id="Path_4815" data-name="Path 4815" d="M303.5,412l0,.109-.025.1-.159.129-.143.015-.134-.094-.074-.2.129-.153.06-.094.064-.188.064-.263.059-.307.054-.342.044-.337.03-.317.01-.267-.01-.2-.035-.1-.139-.188.064-.055.188.02.223.054.178.035.257.02.089.025-.074.059-.233.134-.049.074-.035.084L303.5,412Z" transform="translate(-275.763 -352.32)" fill="#fff" stroke="#fff" stroke-miterlimit="2.414" stroke-width="0.003" fill-rule="evenodd"/>
      <path id="Path_4816" data-name="Path 4816" d="M309.52,409.116l.1.045.2.248,1.357,1.763.119.1.144.079.119.069.039.06-.089.064-.282.074-.243.035-.1-.045-.035-.149-.06-.327-.094-.153-.213-.069-.2.05-.312.1-.322.079-.183.064-.109.079-.049.129-.03.2.059.252.074.223-.054.069-.178.01L309,412.1l-.035-.173.51-2.679.049-.134Z" transform="translate(-270.852 -352.434)" fill="#fff" stroke="#fff" stroke-miterlimit="2.414" stroke-width="0.003" fill-rule="evenodd"/>
      <path id="Path_4817" data-name="Path 4817" d="M302.9,409.2l.153-.173.094-.04.059.109.04.258.262,2.377.054.163.1.149.1.119.07.079-.02.03-.144-.03-.307-.1-.213-.089-.1-.074-.01-.079.025-.109.035-.154v-.223l-.045-.252-.064-.109-.129-.02-.391-.074-.376-.139-.139-.035-.144.064-.218.193-.109.173.015.2-.04.144-.158-.025-.277-.109-.094-.059.044-.1.153-.124.238-.163.208-.188L302.9,409.2Z" transform="translate(-277.412 -352.543)" fill="#fff" stroke="#fff" stroke-miterlimit="2.414" stroke-width="0.003" fill-rule="evenodd"/>
      <path id="Path_4818" data-name="Path 4818" d="M312.91,410.337l.2.094.059-.02-.05-.153-.668-1.585-.109-.079-.119-.025.03-.064.327-.178.208-.059.01.1-.059.188,0,.173.812,1.991.084.218,0,.1-.079.005-.183-.084-2.228-1.154-.228-.1-.059.035.064.188.673,1.56.163.109.069.153-.149.173-.114.094-.1.01-.1-.059-.129-.139.045-.149.045-.178-.772-1.882-.1-.248-.045-.163.005-.089.069-.015.134.045.2.1,2.09,1.08Z" transform="translate(-269.666 -353.129)" fill="#fff" stroke="#fff" stroke-miterlimit="2.414" stroke-width="0.003" fill-rule="evenodd"/>
      <path id="Path_4819" data-name="Path 4819" d="M310.065,410.358l.114-.079-.084-.109-.252-.282-.139-.154-.109-.114-.089-.074-.064-.035-.05,0-.035.035-.025.064-.025.1-.02.134-.025.158-.03.193-.025.292.05.144.139-.025.366-.119.3-.124Z" transform="translate(-270.649 -352.115)" fill="#00558f" stroke="#00558f" stroke-miterlimit="2.414" stroke-width="0.003" fill-rule="evenodd"/>
      <path id="Path_4820" data-name="Path 4820" d="M302.234,409.434l-.119.144-.094.094-.114.1-.114.109-.1.109-.074.1-.03.1.025.084.1.069.178.049.163.04.144.054.119.045.089.015.054-.039.025-.119-.015-.208-.02-.317,0-.317-.005-.139-.074-.1-.134.119Z" transform="translate(-276.881 -352.271)" fill="#00558f" stroke="#00558f" stroke-miterlimit="2.414" stroke-width="0.003" fill-rule="evenodd"/>
      <path id="Path_4821" data-name="Path 4821" d="M302.113,408.825l.208.144.193.213.134.218.045.243-.059.243-.05.094-.064.084-.074.079-.079.069-.089.059-.1.049-.1.04-.1.03-.109.02-.109.01-.109-.005-.1-.015-.1-.03-.094-.045-.094-.054-.084-.069-.149-.124-.1-.025-.074.084-.089.2-.143.307-.094.327.025.149.149.089.064.054-.01.074-.119.03-.252-.119-.153-.074-.163-.045-.362-.109-.124-.074.045-.059.158-.045.2-.045.183-.049.1-.069.787-1.778,0-.168-.069-.178-.06-.134.035-.059.213.064.946.4Z" transform="translate(-278.532 -353.053)" fill="#fff" stroke="#fff" stroke-miterlimit="2.414" stroke-width="0.003" fill-rule="evenodd"/>
      <path id="Path_4822" data-name="Path 4822" d="M301.669,409.414l.02-.153-.064-.143-.163-.169-.3-.242-.129-.074-.193.089-.114.149-.144.307-.149.3-.074.193,0,.114.1.059.218.03.208.02.193.015.178-.025.159-.084.149-.178.1-.208Z" transform="translate(-277.891 -352.831)" fill="#00558f" stroke="#00558f" stroke-miterlimit="2.414" stroke-width="0.003" fill-rule="evenodd"/>
      <path id="Path_4823" data-name="Path 4823" d="M297.894,407.538l.079-.015.069.03.025.074v1.015l0,.228.035.114.084.025.139-.045,1-.416.094,0,.059.064.015.084-.06.069-1.753,1.06-.188.1-.069-.02.01-.149.426-2.149.035-.069Z" transform="translate(-280.29 -353.737)" fill="#fff" stroke="#fff" stroke-miterlimit="2.414" stroke-width="0.003" fill-rule="evenodd"/>
      <path id="Path_4824" data-name="Path 4824" d="M313.253,408.617l-.049-.054.01-.069.055-.05h.069l.921.352.218.074.124,0,.054-.079.015-.168v-1.183l.02-.064.064-.03.069.015.035.064.391,2,.044.258-.01.129-.079.01-.154-.084-1.8-1.119Z" transform="translate(-267.38 -353.88)" fill="#fff" stroke="#fff" stroke-miterlimit="2.414" stroke-width="0.003" fill-rule="evenodd"/>
      <path id="Path_4825" data-name="Path 4825" d="M313.877,384l2.08-.139,2.035.059,1.986.258,1.926.436,1.857.614,1.778.782,1.7.936,1.6,1.085,1.5,1.223,1.387,1.352L333,392.079l1.139,1.585,1.005,1.684.862,1.778.708,1.862.545,1.936.376,2,.193,2.055.01,2.1-.049.792-.084.792-.119.792-.149.782-.178.777-.208.773-.238.768-.267.758-.3.748-.317.738-.347.723-.371.713-.4.7-.416.683-.441.673-.46.654-.485.634-.5.619-.52.6-.535.579-.431.416-.456.386-.465.376-.471.376-.451.386-.351.307-.376.3-.391.287-.411.282-.421.272-.441.258-.446.253-.461.238-.465.228-.475.223-.48.208-.48.193-.485.188-.49.173-.485.159-.48.153-.48.134-.47.129-.471.114-.456.1-.4.079-.4.074-.406.064-.411.059-.411.05-.416.045-.416.035-.421.03-.421.025-.421.01-.416.005-.421-.005-.421-.01-.416-.02-.416-.03-.411-.04-.411-.049-.406-.059-.406-.064-.4-.079-.554-.119-.555-.134-.55-.139-.55-.154-.54-.163-.54-.173-.535-.183-.53-.193-.525-.213-.52-.218-.51-.233-.51-.248-.5-.257-.49-.277-.485-.287-.48-.3-.47-.317-.466-.332-.451-.347-.446-.362-1.535-1.416-1.367-1.52-1.193-1.609-1.02-1.694L295.748,415l-.688-1.817-.52-1.857-.352-1.887L294,407.528l-.025-1.916.139-1.911.3-1.9.465-1.872.624-1.832.787-1.778.946-1.723,1.1-1.644L299.6,391.4l1.416-1.461,1.574-1.352.406-.312.416-.3.421-.292.431-.277.431-.267.436-.258.446-.247.446-.238.456-.228.456-.213.465-.2.465-.2.475-.183.475-.173.48-.163.485-.154.49-.144.5-.134.5-.124.5-.114,2.109-.357Z" transform="translate(-283.111 -373.094)" fill="#fff" stroke="#fff" stroke-miterlimit="2.414" stroke-width="0.003" fill-rule="evenodd"/>
      <path id="Path_4826" data-name="Path 4826" d="M298.118,408.037l-.045-.272-.094-.253-.109-.277.035-.074.124.084.159.193.148.258.1.2.114.124.149.074.218.049.213.045.2.059.109.06-.059.064-.307.064-.322.064-.312.119-.223.1-.124.044-.05-.02v-.079l.03-.149.035-.213.01-.267Z" transform="translate(-279.925 -354.034)" fill="#fff" stroke="#fff" stroke-miterlimit="2.414" stroke-width="0.003" fill-rule="evenodd"/>
      <path id="Path_4827" data-name="Path 4827" d="M314.406,408.552l-.139-.089-.3-.144-.322-.074-.332-.02-.238-.035-.079-.1.109-.1.342-.054.208-.02.173-.045.139-.064.119-.1.1-.144.094-.188.089-.168.089-.04.04.1-.02.253-.045.4.03.4.025.079.015.079-.1.089Z" transform="translate(-267.547 -354.034)" fill="#fff" stroke="#fff" stroke-miterlimit="2.414" stroke-width="0.003" fill-rule="evenodd"/>
      <path id="Path_4828" data-name="Path 4828" d="M296.543,405.735l-.149.1-1.2,1.079-.079.114.039.163.03.139-.03.069-.089-.054-.213-.193-.213-.213-.06-.124.06-.1.2.03.287-.054,1.575-1.481.208-.173.074.02-.015.233-.342,2.535-.025.248.02.109.084-.03.168-.153,1.109-1.109.119-.149-.015-.1-.025-.069.01-.05.04-.059.015-.02.149.04.144.213.144.188.084.153-.228-.015-.129.035-.213.129-.267.2-.292.243-.292.257-.262.248-.208.208-.119.144-.064.143.064.149.089.223-.1.025-.188-.124-.178-.2-.064-.218.357-2.565v-.183Z" transform="translate(-282.619 -355.772)" fill="#fff" stroke="#fff" stroke-miterlimit="2.414" stroke-width="0.003" fill-rule="evenodd"/>
      <path id="Path_4829" data-name="Path 4829" d="M318.527,406.521l.144.079.02.158-.079.144-.158.015-1.555-.337-.074.143.049.208.074.327.084.337.143.3.089.154-.01.119-.119.149-.317.307-.044-.045.089-.2.074-.178.01-.089v-.1l-.01-.119-.02-.124-.03-.134-.04-.139-.045-.149-.054-.149-.059-.149-.064-.148-.069-.144-.074-.139-.079-.129-.079-.124-.084-.109-.089-.1-.084-.084-.089-.064-.089-.044-.084-.025-.178-.06-.03-.1.069-.119.124-.129.134-.134.178-.193.084-.05.02.064-.044.124-.035.218.1.178.173.164.169.178.129.124.178.045,1.654.267Z" transform="translate(-265.424 -355.672)" fill="#fff" stroke="#fff" stroke-miterlimit="2.414" stroke-width="0.003" fill-rule="evenodd"/>
      <path id="Path_4830" data-name="Path 4830" d="M334.814,396.9l-.01-.139-.054-.074-.114-.035-.183-.01-38.98.337-.208.01-.114.04-.045.084.01.154.317,2.382.054.342.064.332.074.337.089.327.094.327.109.327.114.322.124.317.129.317.134.312.144.317.148.307.149.312.154.3.154.307.158.3.159.3.159.3.158.3.154.3.154.277.158.272.164.267.173.262.178.257.183.248.193.247.193.243.2.238.2.233.208.233.213.228.218.223.223.223.223.218.223.218.228.213.228.218.233.208.233.213,1.4,1.154,1.476.99,1.545.822,1.594.663,1.634.51,1.664.351,1.689.2,1.7.055,1.7-.089,1.684-.238,1.664-.371,1.629-.505,1.589-.644,1.53-.768,1.471-.9,1.392-1.02,1.307-1.139,1.208-1.253,1.1-1.372.98-1.481.158-.262.154-.267.159-.272.153-.277.149-.282.153-.287.143-.287.144-.292.139-.292.134-.3.129-.3.124-.3.114-.3.109-.307.1-.3.094-.307.084-.307.074-.3.06-.307.054-.3.421-2.694.025-.213Z" transform="translate(-282.187 -362.641)" fill="#00558f" stroke="#00558f" stroke-miterlimit="2.414" stroke-width="0.003" fill-rule="evenodd"/>
      <path id="Path_4831" data-name="Path 4831" d="M317.424,404.218l-.188.2-.154.223-.134.233-.074.174.02.119.119.144.183.163.218.129.233.04.2-.005.03.064-.084.119-.134.163-.094.129-.089.134-.064.119-.069.094-.02-.035-.02-.044.01-.129.03-.109-.213-.277-.277-.238-.168-.173-.079-.124-.01-.129.049-.153.193-.411.223-.337.248-.267.267-.2.272-.139.282-.074.282-.02.267.03.257.079.233.124.208.163.169.2.129.238.084.262.025.292-.035.312-.1.332-.178.347-.253.362-.347.366-.158.109-.173.035-.129-.064-.2-.188-.089-.114-.01-.079.089,0,.247.044.233.005.218-.1.2-.168.159-.173.119-.188.079-.193.05-.193.01-.193-.02-.188-.05-.183-.069-.178-.1-.168-.114-.153-.134-.134-.149-.119-.163-.094-.168-.074-.183-.045-.183-.015-.188.015-.183.05-.183.089-.213.158Z" transform="translate(-264.604 -356.944)" fill="#fff" stroke="#fff" stroke-miterlimit="2.414" stroke-width="0.003" fill-rule="evenodd"/>
      <path id="Path_4832" data-name="Path 4832" d="M305.382,400.225l.035.025.01.04-.015.035-1.278,1.253-.223.188-.243.163-.252.149-.253.148-.247.158-.238.183-.208.218-.134.183-.119.2-.109.218-.089.233-.074.243-.06.258-.045.262-.03.267-.01.267.005.272.02.272.035.267.054.257.074.253.089.243.1.228.129.213.144.193.163.178.178.154.267.178.119.035.064-.1-.015-.163-.054-.213-.04-.223-.025-.233-.02-.238v-.242l0-.253.02-.252.03-.253.045-.257.05-.253.059-.252.074-.248.079-.248.094-.233.1-.233.1-.218.119-.208.124-.2.129-.183.139-.168,1.862-2.1.06-.035.064.02.04.06-.02.064-1.228,1.827-.188.317-.149.342-.109.366-.074.386-.035.4-.005.411.025.411.059.416.089.416.119.406.149.4.173.386.2.366.218.342.248.322.267.287.287.258.307.218.327.178.342.129.248.064.252.054.253.035.262.025.262.02.267.005h.272l.277-.005.277,0,.287-.01.287-.01.292,0,.3-.005.3.005.3.01.307.02.312.03.312.04.317.054.322.074.258.089.074.089-.089.074-.243.025h-.342l-.317.005-.3,0-.282.015-.263.015-.252.025-.238.035-.228.039-.218.05-.213.064-.208.069-.208.089-.208.1-.208.114-.213.129-.218.149-.228.163-.233.183-.252.2-.262.228-.258.183-.2.045-.223-.079-.173-.178-.114-.168-.124-.174-.144-.163-.153-.138-.178-.1-.2-.054-.361-.054-.347-.074-.342-.084-.332-.1-.337-.109-.332-.124-.342-.129-.143-.035-.144.035-.436.168-.4.238-.223.158-.114.03-.035-.114v-.3l.03-.257.059-.233.089-.218.109-.2.129-.2.134-.193.134-.2.134-.213.144-.272.025-.149-.109-.153-.163-.084-.2-.055-.188-.064-.178-.079-.173-.084-.169-.094-.158-.1-.148-.114-.144-.124-.134-.129-.129-.139-.119-.144-.114-.149-.1-.158-.1-.164-.089-.168-.084-.178-.074-.178-.069-.188-.059-.188-.05-.193-.094-.193-.159-.139-.3-.188-.277-.2-.258-.248-.139-.188-.025-.109.089-.084.153-.025.149-.015.139-.04.134-.059.129-.079.114-.094.109-.109.1-.119.094-.129.084-.129.079-.134.069-.129.064-.129.069-.164.054-.168.04-.168.03-.168.01-.173v-.173l-.01-.173-.02-.173-.03-.173-.04-.173-.049-.168-.054-.168-.06-.168-.069-.163-.069-.159-.079-.159-.079-.153-.079-.149-.084-.139-.089-.138-.119-.168-.134-.144-.153-.129-.168-.114-.173-.094-.188-.084-.2-.074-.208-.06-.213-.049-.213-.05-.218-.039-.223-.035-.223-.03-.218-.035-.218-.03-.213-.035-.2-.035-.2-.04-.188-.05-.178-.054-.272-.129-.059-.124.109-.064.248.049.218.069.193.049.183.035.168.02.154.005.139-.005.134-.015.124-.025.124-.03.114-.04.109-.049.114-.05.114-.054.114-.06.119-.054.129-.059.134-.059.144-.054.158-.049.168-.05.188-.01.114.158.054.084.074.094.089.089.1.094.119.089.129.089.138.089.149.084.153.079.159.074.159.064.158.064.159.05.159.045.148.035.144.025.134.015h.124l.114-.015.1-.03.168-.045.094.02,0,.094-.045.223-.109.292-.149.247-.178.253-.109.228-.01.248.055.317.039.317.025.2.054.119.114.06.188.03.238.02.243.025.242.01.238-.015.238-.054.223-.1,1.545-.956.04-.01Z" transform="translate(-281.326 -361.997)" fill="#fff" stroke="#fff" stroke-miterlimit="2.414" stroke-width="0.003" fill-rule="evenodd"/>
      <path id="Path_4833" data-name="Path 4833" d="M306.48,410.212l-.109-.02-.05-.094.015-.1.094-.054,1.887-.431.218-.04.223-.03.213-.015.218,0,.218,0,.213.01.213.02.218.02.213.02.218.025.213.02.223.015.218.01.223,0,.223-.01.228-.02.233-.03.238-.045.238-.064.243-.084.391-.173.357-.213.322-.257.292-.287.258-.317.223-.347.2-.366.159-.386.129-.406.1-.411.069-.426.035-.431.01-.431-.025-.426-.054-.421-.084-.416-.119-.4-.143-.381-.173-.366-.2-.337-.867-1.3-.01-.04.02-.034.039-.015.035.02,1.743,1.822.144.163.139.183.134.193.129.2.114.218.114.228.1.238.094.243.084.252.069.253.064.257.05.258.045.257.025.253.02.253v.248l-.01.243-.025.233-.04.228-.049.213-.045.242.054.119.134-.03.238-.188.139-.134.129-.148.119-.154.109-.168.1-.168.089-.178.079-.183.069-.188.06-.188.049-.188.035-.188.055-.411.015-.376-.025-.342L318,404l-.084-.287-.114-.267-.139-.248-.158-.228-.183-.213-.2-.2-.218-.2-.228-.188-.238-.183-.243-.188-.253-.188-.252-.193-.257-.2-.253-.218-.248-.228-.238-.248-.213-.253-.04-.114h.079l.134.089.124.109.129.1.129.094.129.094.134.084.134.079.134.074.139.064.139.064.139.054.144.045.144.04.148.035.149.025.149.02.153.01h.159l.158-.005.159-.015.163-.025.2-.049.1-.089.04-.178.045-.327.049-.332.015-.248-.07-.178-.158-.193-.064-.084-.084-.129-.084-.158-.079-.164-.055-.163-.015-.134.035-.1.1-.04.178.03.094.025.109.005.119-.005.134-.02.139-.03.143-.045.149-.049.153-.059.153-.069.154-.069.149-.079.149-.079.139-.089.139-.084.124-.089.114-.084.1-.089.089-.079.074-.084.055-.074.109-.148.1-.069.119,0,.178.054.159.059.149.06.129.059.124.054.109.054.1.05.1.045.094.045.094.035.094.035.1.025.1.02.114.015.119.005h.129l.149-.015.159-.015.178-.03.2-.039.248-.025.109.069-.074.114-.282.144-.158.064-.159.05-.163.044-.163.035-.163.03-.168.03-.163.025-.163.025-.168.02-.163.025-.163.025-.163.035-.159.035-.158.04-.158.05-.154.059-.153.069-.149.079-.149.094-.144.109-.178.168-.168.2-.159.228-.144.258-.124.272-.109.287-.094.3-.069.307-.05.312-.025.312,0,.3.025.3.05.282.079.263.109.243.139.213.173.188.2.149.243.109.277.069.3.05.1.02-.02.1-.119.2-.183.213-.218.178-.243.153-.252.129-.183.178-.069.258-.055.2-.06.2-.074.183-.079.178-.089.168-.094.158-.1.158-.109.144-.114.139-.124.134-.134.129-.139.124-.144.114-.149.114-.154.1-.163.1-.168.1-.168.1-.178.094-.183.089-.154.084-.079.084-.01.1.069.144.134.2.144.2.124.2.114.193.094.2.079.2.069.208.06.213.044.228.04.247-.02.139-.089.094-.114-.025-.213-.154-.153-.114-.149-.089-.144-.064-.148-.045-.144-.025-.144,0-.144,0-.143.02-.139.035-.144.04-.143.05-.144.054-.148.059-.144.054-.148.059-.149.055-.154.054-.149.045-.159.035-.159.025-.188.025-.163.025-.144.03-.129.03-.114.04-.1.05-.094.059-.094.074-.094.089-.1.109-.109.129-.114.154-.144.173-.109.1-.1.04-.114-.02-.143-.064-.287-.178-.267-.213-.252-.223-.248-.233-.262-.218-.282-.188-.124-.069-.144-.064-.149-.064-.158-.054-.164-.055-.173-.045-.178-.045-.183-.04-.183-.03-.183-.03-.188-.025-.178-.015-.183-.015-.173,0h-.173l-.163,0-.153.01-.144.015-.891.124Z" transform="translate(-273.011 -362.111)" fill="#fff" stroke="#fff" stroke-miterlimit="2.414" stroke-width="0.003" fill-rule="evenodd"/>
      <path id="Path_4834" data-name="Path 4834" d="M295.2,404.059l.005-.139-.025-.139-.025-.208.025-.084.074.059.149.193.069.069.074.074.134.183.055.153-.159.089-.188.114-.1.213-.064.223.035.173.1.139.144.129.149.144.124.173.079.119.094.049.153-.015.252-.074.168-.1.074-.114.03-.109.01-.074h.035l.084.1.178.228.178.208.035.2-.228-.089-.253-.079-2.52.7-.243.054-.064-.054.084-.188,1.277-2.327Z" transform="translate(-283.225 -357.037)" fill="#fff" stroke="#fff" stroke-miterlimit="2.414" stroke-width="0.003" fill-rule="evenodd"/>
      <path id="Path_4835" data-name="Path 4835" d="M295.351,405.091l-.153-.173-.084-.1-.069-.109-.05-.1-.045-.094-.035-.074-.035-.055-.035-.02-.045.01-.054.054-.069.1-.084.159-.109.223-.129.2-.158.258-.045.178.2-.045.386-.149.406-.089.079,0,.079-.01.049-.159Z" transform="translate(-282.966 -356.326)" fill="#00558f" stroke="#00558f" stroke-miterlimit="2.414" stroke-width="0.003" fill-rule="evenodd"/>
      <path id="Path_4836" data-name="Path 4836" d="M302.906,405.288l.114-.069.119-.084.109-.094.1-.1.084-.1.054-.1.025-.094-.015-.079-.069-.069-.124-.045-.183-.025-.243.015-.158.059-.124.129-.094.208-.094.337.02.159.153.059.223-.054.1-.049Z" transform="translate(-276.211 -356.271)" fill="#00558f" stroke="#00558f" stroke-miterlimit="2.414" stroke-width="0.003" fill-rule="evenodd"/>
      <path id="Path_4837" data-name="Path 4837" d="M310.08,404.891l-.054-.159-.089-.247-.064-.1-.119-.02h-.267l-.173.01-.138.02-.1.025-.069.035-.035.05v.064l.035.079.069.1.1.119.138.144.1.084.144.094.163.084.164.05.134,0,.084-.084.015-.183-.04-.159Z" transform="translate(-270.847 -356.324)" fill="#00558f" stroke="#00558f" stroke-miterlimit="2.414" stroke-width="0.003" fill-rule="evenodd"/>
      <path id="Path_4838" data-name="Path 4838" d="M302.727,404.415l-.208-.054-.386-.149-.381-.144-.154-.01-.143.02-.119.045-.089.069-.054.094-.01.109.04.119.109.134.153.124.164.079.168.039.178.005.178-.02.183-.03.188-.04.178-.049.064-.084,0-.168-.055-.089Z" transform="translate(-277.215 -356.572)" fill="#00558f" stroke="#00558f" stroke-miterlimit="2.414" stroke-width="0.003" fill-rule="evenodd"/>
      <path id="Path_4839" data-name="Path 4839" d="M311.015,403.975l-.153.059-.327.139-.322.139-.168.114-.049.124.044.119.129.094.193.064.233.025.262-.01.258-.054.208-.1.173-.139.094-.1.02-.089-.05-.089-.119-.109-.124-.114-.139-.084-.163.02Z" transform="translate(-270.005 -356.656)" fill="#00558f" stroke="#00558f" stroke-miterlimit="2.414" stroke-width="0.003" fill-rule="evenodd"/>
      <path id="Path_4840" data-name="Path 4840" d="M300.3,404.843l.079-.04.381-.2.4-.188.4-.153.421-.129.163-.069.06-.094-.06-.089-.178-.079-.114-.03-.114-.025-.114-.02-.119-.02-.114-.01h-.233l-.114.01-.109.015-.1.025-.1.035-.1.039-.094.05-.089.059-.084.069-.079.079-.074.089-.059.1-.059.114-.045.124-.084.292v.119l.114.035.154-.064.079-.04Z" transform="translate(-278.22 -356.87)" fill="#00558f" stroke="#00558f" stroke-miterlimit="2.414" stroke-width="0.003" fill-rule="evenodd"/>
      <path id="Path_4841" data-name="Path 4841" d="M311.15,404.071l.079.025.485.178.465.223.461.233.223.079.129-.025.03-.129-.064-.243-.045-.109-.055-.1-.054-.094-.064-.084-.069-.079-.069-.069-.079-.06-.079-.054-.084-.044-.089-.04-.094-.03-.094-.025-.1-.015-.1-.01-.1-.005h-.1l-.109.01-.109.015-.109.02-.114.025-.247.094-.079.119.045.129.124.054.079.015Z" transform="translate(-269.263 -356.955)" fill="#00558f" stroke="#00558f" stroke-miterlimit="2.414" stroke-width="0.003" fill-rule="evenodd"/>
      <path id="Path_4842" data-name="Path 4842" d="M295.268,403.132l.1-.134.04-.173.049-.114.139.045.074.148.06.168.144.267.129.3-.208-.129-.183-.153-.139.03-1.857,1.089-.109.084-.01.1.079.173.159.262.134.1h.183l.149.049v.193l-.069.149-.119.054-.159-.03-.2-.124-.04-.094-.03-.1-.891-1.59-.084-.188-.025-.163.035-.129.1-.1.158-.069.282-.049.1.064-.109.168-.144.173-.035.228.1.223.119.2.1.094.114.005.158-.079,1.7-.951Z" transform="translate(-284.25 -357.675)" fill="#fff" stroke="#fff" stroke-miterlimit="2.414" stroke-width="0.003" fill-rule="evenodd"/>
      <path id="Path_4843" data-name="Path 4843" d="M319.584,404.985l-.252.015-.238-.025-.223-.069-.208-.1-.188-.134-.173-.159-.148-.183-.124-.2-.1-.213-.074-.223-.045-.228-.01-.228.02-.223.055-.218.089-.208.129-.188.168-.168.208-.144.253-.114.267-.074.253-.02.238.025.228.064.213.1.193.134.173.158.149.183.129.2.1.213.074.228.045.233.015.228-.02.228-.054.218-.094.208-.134.188-.173.168-.213.144-.263.109-.262.064Z" transform="translate(-263.619 -358.35)" fill="#fff" stroke="#fff" stroke-miterlimit="2.414" stroke-width="0.003" fill-rule="evenodd"/>
      <path id="Path_4844" data-name="Path 4844" d="M304.086,407.087v.159l.064.059h.153l2.525-.2.267-.01.277.015.277.03.282.054.272.069.262.089.248.1.213.144.149.163-.03.074-.3-.119-.218-.094-.218-.074-.228-.054-.233-.03-.238-.02h-.238l-.248.015-.248.025-.248.035-.248.04-.252.044-.248.05-.248.049-.248.05-.248.044-.243.04-.238.035-.233.025-.228.01h-.223l-.193-.015-.134-.03-.084-.05-.049-.084-.01-.129.01-.183.025-.3.02-.332.025-.346.015-.367.02-.381.01-.391.005-.4-.005-.406-.01-.416-.015-.411-.03-.411-.035-.406-.049-.4-.064-.386-.074-.376-.089-.357-.1-.342-.124-.317-.138-.292-.159-.268-.812-1.233-.109-.173-.06-.124,0-.094.045-.069.109-.054.168-.06.951-.277.163-.025.148.03.114.069.079.089.025.109-.045.109-.119.1-.208.079-.178.04-.168.044-.124.069-.05.119.069.178.168.272.159.282.148.287.134.3.129.307.119.307.109.317.1.317.084.327.079.322.07.332.059.332.05.332.04.332.03.332.02.332.01.327,0,.327-.01.322-.02.322-.129,1.738Z" transform="translate(-276.747 -361.536)" fill="#fff" stroke="#fff" stroke-miterlimit="2.414" stroke-width="0.003" fill-rule="evenodd"/>
      <path id="Path_4845" data-name="Path 4845" d="M300.587,401.568l-.03-.059-.059-.015-.064.02-.025.06-.1,1.065,0,.376.05.4.084.4.094.391.084.366.084.2.138.109.2.114.248.109.144-.025.035-.144-.094-.233-.213-.366-.153-.4-.411-2.372Z" transform="translate(-277.937 -358.671)" fill="#00558f" stroke="#00558f" stroke-miterlimit="2.414" stroke-width="0.003" fill-rule="evenodd"/>
      <path id="Path_4846" data-name="Path 4846" d="M319.935,402.462l-.124-.079-.139-.079-.144-.064-.153-.059-.154-.04-.158-.03-.154-.01-.153.01-.144.025-.139.05-.248.178-.173.243-.064.159-.045.153-.015.149,0,.149.025.144.04.139.064.129.074.129.094.114.1.109.119.1.124.089.134.079.139.064.149.055.149.035.154.025.149.01.154-.01.153-.025.272-.114.208-.213.069-.1.054-.114.044-.114.03-.114.015-.114,0-.114-.01-.119-.02-.114-.035-.109-.044-.109-.054-.1-.069-.1-.079-.094-.094-.089-.109-.094Z" transform="translate(-263.514 -358.174)" fill="#00558f" stroke="#00558f" stroke-miterlimit="2.414" stroke-width="0.003" fill-rule="evenodd"/>
      <path id="Path_4847" data-name="Path 4847" d="M311.955,404.536l.005-.079.039-.3.05-.3.055-.3.045-.292.045-.3.025-.292.015-.3-.015-.3-.035-.307-.064-.267-.074-.089-.074.089-.049.267-.035.243-.03.238-.035.238-.04.238-.045.238-.045.233-.055.233-.059.228-.069.228-.074.228-.084.223-.094.223-.1.223-.059.208.089.045.173-.059.193-.1.159-.089.134-.064.1-.094.01-.079Z" transform="translate(-269.107 -358.742)" fill="#00558f" stroke="#00558f" stroke-miterlimit="2.414" stroke-width="0.003" fill-rule="evenodd"/>
      <path id="Path_4848" data-name="Path 4848" d="M311.1,403.515l.005-.228.015-.228.025-.228.03-.233.045-.233.045-.233.06-.233.059-.233.069-.228.079-.233.079-.228.084-.223.094-.223.094-.223.1-.218.1-.213.1-.208.109-.2.109-.2.109-.193.114-.223.015-.124-.1-.064-.267-.089-.243-.055-.218-.079-.074-.163.064-.208.153-.154.178-.01,1.114.352.173.069.069.084-.025.139-.114.218-1,1.718-.059.114-.059.139-.059.158-.054.183-.055.2-.055.208-.049.223-.05.233-.045.238-.045.242-.04.243-.035.243-.035.233-.03.233-.02.218-.02.213-.015.193-.01.173,0,.159,0,.134.129,3.011.005.168-.015.129-.039.084-.07.05-.1.02h-.149l-.2-.02-3-.376-.312-.015-.327.025-.332.049-.322.079-.3.1-.173.03-.089-.064.045-.119.218-.124.352-.144.386-.124.371-.054h2.218l.357,0,.282-.005.208-.015.148-.03.1-.04.059-.06.03-.074,0-.1v-3.327Z" transform="translate(-273.013 -361.603)" fill="#fff" stroke="#fff" stroke-miterlimit="2.414" stroke-width="0.003" fill-rule="evenodd"/>
      <path id="Path_4849" data-name="Path 4849" d="M311.277,397.838l.193.044.059.084-.039.163-.783,2.194-.054.178-.054.188-.054.2-.045.218-.045.223-.04.233-.035.233-.035.243-.03.243-.02.243-.025.243-.015.243-.015.233,0,.233,0,.218v.411l.01.188.134,2.411-.005.158-.064.069-.158.02-2.818.124-.406.139-.386.208-.233.129-.084.04-.035-.089-.01-.2v-9.19l.01-.178.044-.109.109-.069.193-.06,1.238-.317.267-.04.406.05,2.832.446Z" transform="translate(-273.129 -362.066)" fill="#fff" stroke="#fff" stroke-miterlimit="2.414" stroke-width="0.003" fill-rule="evenodd"/>
      <path id="Path_4850" data-name="Path 4850" d="M302.914,398l.183-.069,2.936-.525.342-.04.3.035,1.109.223.223.054.148.054.084.079.04.114,0,.168v9.19l-.035.193-.183-.035-.807-.317-.248-.074-.341-.015h-2.218l-.243-.015-.1-.064-.015-.159.109-2.684,0-.183v-.213l-.01-.238-.015-.252-.015-.272-.025-.282-.03-.287-.03-.292-.035-.287-.045-.287-.039-.277-.05-.262-.05-.248-.054-.223-.059-.2-.055-.173-.753-1.946-.035-.193Z" transform="translate(-275.798 -362.046)" fill="#fff" stroke="#fff" stroke-miterlimit="2.414" stroke-width="0.003" fill-rule="evenodd"/>
      <path id="Path_4851" data-name="Path 4851" d="M292.815,403.2l-.05.114-.015.124-.055.208-.089.074-.084-.109-.129-.332-.064-.163-.084-.153-.089-.2.025-.193.153.163.163.193.163-.035.332-.129.436-.193.461-.218.421-.218.307-.178.124-.114.045-.109.089-.04.079.079.079.243.015.159-.084.1-.238.114-1.911.812Z" transform="translate(-284.6 -358.512)" fill="#fff" stroke="#fff" stroke-miterlimit="2.414" stroke-width="0.003" fill-rule="evenodd"/>
      <path id="Path_4852" data-name="Path 4852" d="M299.516,403.77h.089l.069-.054,0-.089-.5-1.788-.109-.391-.049-.129-.079.055-.059.168-.045.312.035.3.584,1.545.055.069Z" transform="translate(-279.129 -358.813)" fill="#00558f" stroke="#00558f" stroke-miterlimit="2.414" stroke-width="0.003" fill-rule="evenodd"/>
      <path id="Path_4853" data-name="Path 4853" d="M312.738,403.579l.074.059h.094l.06-.074.6-1.624.015-.134-.02-.188-.055-.2-.084-.154-.109-.06-.139.084.005.228.025.253-.475,1.713.005.094Z" transform="translate(-267.766 -358.905)" fill="#00558f" stroke="#00558f" stroke-miterlimit="2.414" stroke-width="0.003" fill-rule="evenodd"/>
      <path id="Path_4854" data-name="Path 4854" d="M292.922,400.082l.248-.03.238.015.228.05.208.084.188.114.173.139.149.154.129.178.109.188.079.2.054.2.03.2,0,.2-.03.2-.064.183-.1.178-.134.153-.168.134-.208.109-.327.114-.307.06-.287.015-.272-.03-.248-.069-.228-.1-.2-.134-.173-.153-.148-.178-.114-.193-.084-.208-.049-.218-.015-.218.025-.218.064-.213.1-.2.149-.193.193-.173.243-.148.292-.124.263-.069Z" transform="translate(-285.063 -359.849)" fill="#fff" stroke="#fff" stroke-miterlimit="2.414" stroke-width="0.003" fill-rule="evenodd"/>
      <path id="Path_4855" data-name="Path 4855" d="M321.4,401.431l.168.03.159-.114.183-.109-.079.247-.119.282-.064.248-.173.109-.1-.2-.124-.183-1.9-.713-.134-.025-.084.079-.084.223-.079.213-.084.218-.059.223-.005.218.084.223.044.178-.124.114-.119.015-.1-.074-.094-.153-.079-.238.04-.159.064-.158.178-.426.2-.411.154-.431.015-.084.01-.089.079-.248.1.094.1.218.059.129,1.981.753Z" transform="translate(-263.109 -359.698)" fill="#fff" stroke="#fff" stroke-miterlimit="2.414" stroke-width="0.003" fill-rule="evenodd"/>
      <path id="Path_4856" data-name="Path 4856" d="M293.335,400.243l-.163.005-.173.02-.173.035-.173.049-.168.069-.154.079-.144.1-.119.1-.1.124-.149.272-.079.258-.02.228.04.2.089.178.129.148.168.124.193.094.213.069.228.035.238.005.238-.03.233-.06.218-.089.2-.129.168-.163.139-.2.094-.233.049-.272-.01-.312-.045-.168-.114-.134-.208-.178-.223-.139-.267-.079-.153-.015Z" transform="translate(-284.956 -359.693)" fill="#00558f" stroke="#00558f" stroke-miterlimit="2.414" stroke-width="0.003" fill-rule="evenodd"/>
      <path id="Path_4857" data-name="Path 4857" d="M299.4,401l-.163.069-.317.069-.317.074-.208.084-.119.079-.035.079.05.079.119.069.193.06.208.03.188-.02.168-.069.173-.124.2-.188.059-.1-.025-.178-.025-.064L299.4,401Z" transform="translate(-279.617 -359.116)" fill="#00558f" stroke="#00558f" stroke-miterlimit="2.414" stroke-width="0.003" fill-rule="evenodd"/>
      <path id="Path_4858" data-name="Path 4858" d="M314.433,401.221l.044-.1-.074-.069-.139-.015-.48-.035-.47-.109-.208-.025-.1.059.039.119.208.228.2.149.243.084.252,0,.159-.044.144-.084.183-.163Z" transform="translate(-267.545 -359.181)" fill="#00558f" stroke="#00558f" stroke-miterlimit="2.414" stroke-width="0.003" fill-rule="evenodd"/>
      <path id="Path_4859" data-name="Path 4859" d="M299.566,400.7l.064-.2.01-.129-.04-.069-.074-.015-.1.035-.119.074-.124.1-.119.139-.114.2-.025.163.045.119.094.064h.124l.129-.069.119-.153.129-.267Z" transform="translate(-279.06 -359.66)" fill="#00558f" stroke="#00558f" stroke-miterlimit="2.414" stroke-width="0.003" fill-rule="evenodd"/>
      <path id="Path_4860" data-name="Path 4860" d="M298.772,398.949l-.337-.188-.307-.119-.134-.064-.025-.089.094-.064.238.02.525.153.431.208.342.258.257.292.183.327.1.352.04.357-.025.366-.084.357-.144.347-.188.317-.233.292-.272.243-.312.2-.337.139-.366.069-.381-.01-.4-.094-.411-.188-.416-.3-.124-.139v-.109l.129-.01.258.129.257.129.253.084.252.035.243-.005.233-.044.223-.084.208-.109.193-.144.178-.163.154-.188.134-.208.109-.223.079-.233.055-.243.02-.248-.01-.253-.049-.248-.084-.243-.124-.233-.168-.223-.258-.208Z" transform="translate(-281.055 -361.182)" fill="#fff" stroke="#fff" stroke-miterlimit="2.414" stroke-width="0.003" fill-rule="evenodd"/>
      <path id="Path_4861" data-name="Path 4861" d="M313.538,400.974l-.079-.282-.119-.2-.173-.144-.208-.1-.183-.045-.114.045.05.129.193.347.129.2.109.109.124.035.168-.015.1-.074Z" transform="translate(-267.823 -359.731)" fill="#00558f" stroke="#00558f" stroke-miterlimit="2.414" stroke-width="0.003" fill-rule="evenodd"/>
      <path id="Path_4862" data-name="Path 4862" d="M314.922,402.46l-.312-.114-.277-.154-.238-.183-.2-.213-.154-.238-.119-.258-.079-.272-.04-.282.005-.292.039-.287.084-.287.124-.277.163-.267.2-.248.243-.228.287-.2.327-.168.366-.134.406-.094.144.015.064.1-.084.119-.282.074-.366.074-.307.134-.243.183-.188.218-.134.253-.084.277-.035.3.01.3.054.3.094.3.134.282.163.263.193.233.223.2.248.148.272.1.292.035.3-.03.322-.1.332-.188.208-.1.119.045-.04.154-.287.208-.208.114-.218.1-.228.079-.233.059-.233.035-.243.015-.238-.015-.357-.069Z" transform="translate(-267.133 -361.315)" fill="#fff" stroke="#fff" stroke-miterlimit="2.414" stroke-width="0.003" fill-rule="evenodd"/>
      <path id="Path_4863" data-name="Path 4863" d="M320.544,401.561l-.3-.084-.287-.119-.268-.139-.173-.124-.129-.163-.119-.213-.084-.208-.059-.2-.025-.2v-.188l.025-.188.045-.173.074-.168.089-.148.109-.144.129-.124.149-.109.158-.089.173-.069.183-.054.2-.025.2-.01.213.02.218.045.223.074.188.089.168.114.144.139.119.154.1.168.074.178.05.188.03.193.005.193-.015.2-.04.188-.059.188-.079.173-.1.159-.124.143-.144.124-.159.1-.183.079-.2.049-.223.015-.3-.03Z" transform="translate(-262.554 -361.026)" fill="#fff" stroke="#fff" stroke-miterlimit="2.414" stroke-width="0.003" fill-rule="evenodd"/>
      <path id="Path_4864" data-name="Path 4864" d="M300.066,400.191l.045-.119-.025-.114-.089-.1-.124-.069-.148-.03-.159.03-.129.089-.04.134.045.174.114.144.159.039.208-.064.143-.109Z" transform="translate(-278.675 -360.092)" fill="#00558f" stroke="#00558f" stroke-miterlimit="2.414" stroke-width="0.003" fill-rule="evenodd"/>
      <path id="Path_4865" data-name="Path 4865" d="M320.366,400.989l.282.03.282-.01.277-.055.262-.129.188-.233.079-.158.054-.158.03-.153.01-.149-.015-.139-.03-.134-.05-.129-.064-.119-.079-.109-.1-.1-.1-.089-.119-.084-.129-.074-.139-.059-.144-.055-.149-.04-.153-.025-.153-.015h-.158l-.159.01-.173.035-.154.054-.134.074-.109.089-.094.1-.069.114-.054.124-.035.134-.02.139v.139l.02.144.035.139.045.139.064.129.079.124.094.119.109.1.119.089.134.074.144.054.277.064Z" transform="translate(-262.436 -360.874)" fill="#00558f" stroke="#00558f" stroke-miterlimit="2.414" stroke-width="0.003" fill-rule="evenodd"/>
      <path id="Path_4866" data-name="Path 4866" d="M312.855,400.127l.089-.1.035-.109-.025-.109-.079-.084-.139-.049h-.193l-.238.064-.1.1v.124l.079.114.129.094.149.054.144-.01.153-.084Z" transform="translate(-268.2 -360.161)" fill="#00558f" stroke="#00558f" stroke-miterlimit="2.414" stroke-width="0.003" fill-rule="evenodd"/>
      <path id="Path_4867" data-name="Path 4867" d="M299.207,400.914l.139.03.134-.045.039-.119-.134-1.57-.089-.139-.188-.2-.188-.153-.094.02.1.317.144.312.094.322V400.8l.045.119Z" transform="translate(-279.143 -360.943)" fill="#00558f" stroke="#00558f" stroke-miterlimit="2.414" stroke-width="0.003" fill-rule="evenodd"/>
      <path id="Path_4868" data-name="Path 4868" d="M293.189,398.589l-.04-.04-.188.035-1.684.406-.193.02-.069-.124.044-.089.317-.094,2.213-.52.183-.039.094.01,0,.069-.084.144-.173.233-1.451,1.857-.139.2.045.059.253-.049,1.619-.406.109-.124.094-.158.158.015.04.218.039.258.1.3-.059.049-.149-.089-.193-.124-.173-.04-2.055.475-.04.04-.03.183-.074.188-.109-.04-.089-.183-.035-.243.069-.223,1.545-2.025.1-.149Z" transform="translate(-285.533 -361.411)" fill="#fff" stroke="#fff" stroke-miterlimit="2.414" stroke-width="0.003" fill-rule="evenodd"/>
      <path id="Path_4869" data-name="Path 4869" d="M312.8,400.755l.1.055.109-.015.05-.1.381-1.921-.02-.134-.119-.064-.134.02-.059.119-.322,1.931.015.109Z" transform="translate(-267.721 -361.057)" fill="#00558f" stroke="#00558f" stroke-miterlimit="2.414" stroke-width="0.003" fill-rule="evenodd"/>
      <path id="Path_4870" data-name="Path 4870" d="M297.049,400.473l-.1-.168-.109-.2-.094-.084H296.6l-.277.015-.084-.044.045-.084.114-.119.124-.138.064-.119-.02-.134-.109-.223-.059-.129,0-.069.069,0,.129.059.223.1.228-.025.248-.114.089-.035.005.094v.277l.025.124.134.089.193.124.05.109-.079.089-.188.045-.233.059-.074.178-.02.153-.045.139-.109.035Z" transform="translate(-281.257 -360.745)" fill="#fff" stroke="#fff" stroke-miterlimit="2.414" stroke-width="0.003" fill-rule="evenodd"/>
      <path id="Path_4871" data-name="Path 4871" d="M315.717,400.294h-.089l-.05-.049-.05-.139-.074-.213-.084-.094-.144-.035-.2-.039-.084-.055.064-.079.2-.2.089-.183-.01-.213-.01-.144.039-.069.079.01.114.1.173.094.188.01.183-.025.134-.01.059.05-.049.158-.035.119.049.139.169.228.1.149.01.084-.089-.005-.243-.054-.134-.01-.1.079-.109.223-.025.074-.03.069-.049.03Z" transform="translate(-265.956 -360.888)" fill="#fff" stroke="#fff" stroke-miterlimit="2.414" stroke-width="0.003" fill-rule="evenodd"/>
      <path id="Path_4872" data-name="Path 4872" d="M299.861,398.327l-.079.025-.4.079-.4.064-.178.054-.064.1.054.1.173.074.332.069.332-.045.253-.119.089-.144-.005-.2-.035-.079-.079.015Z" transform="translate(-279.207 -361.273)" fill="#00558f" stroke="#00558f" stroke-miterlimit="2.414" stroke-width="0.003" fill-rule="evenodd"/>
      <path id="Path_4873" data-name="Path 4873" d="M313.4,398.38l-.4-.094-.208-.064-.188-.04.015.094.069.268.079.124.153.084.238.049.317-.035.3-.109.223-.109.045-.119-.084-.074-.168.025Z" transform="translate(-267.868 -361.38)" fill="#00558f" stroke="#00558f" stroke-miterlimit="2.414" stroke-width="0.003" fill-rule="evenodd"/>
      <path id="Path_4874" data-name="Path 4874" d="M299.144,398.537l.035-.094-.064-.114-.139-.114-.168-.1-.173-.074-.139-.03-.208.035-.1.124.094.148.347.193.163.069.178.025.173-.064Z" transform="translate(-279.664 -361.523)" fill="#00558f" stroke="#00558f" stroke-miterlimit="2.414" stroke-width="0.003" fill-rule="evenodd"/>
      <path id="Path_4875" data-name="Path 4875" d="M321.847,397.485l.178-.124V397.3l-.168-.03-1.748-.163-.307-.04-.054-.064v-.119l-.01-.119.035-.2.173.129.169.129,2.065.272.233-.054.208-.059-.005.178-.059.163-.089.144-2.164,1.4-.134.094-.005.059.134.035.3.025,1.431.094.139-.015.055-.119.054-.124.074-.035.05.094-.005.248-.035.233-.03.134-.04.05-.059,0-.074-.05-.109-.069-.148-.06-.188-.045-1.911-.188-.243-.03-.129-.035-.02-.055.079-.084.178-.124,2.184-1.411Z" transform="translate(-262.306 -362.699)" fill="#fff" stroke="#fff" stroke-miterlimit="2.414" stroke-width="0.003" fill-rule="evenodd"/>
      <path id="Path_4876" data-name="Path 4876" d="M313.831,398.378l.134-.1.2-.188.07-.129-.035-.069-.119-.025-.178.025-.213.054-.193.1-.119.119-.054.124.015.114.064.079.124.025.163-.045.143-.084Z" transform="translate(-267.284 -361.636)" fill="#00558f" stroke="#00558f" stroke-miterlimit="2.414" stroke-width="0.003" fill-rule="evenodd"/>
      <path id="Path_4877" data-name="Path 4877" d="M298.309,397.97l-.064-.193-.174-.1-.223.084-.178.178-.015.134.094.089.153.04h.158l.119-.045.129-.188Z" transform="translate(-280.101 -361.792)" fill="#00558f" stroke="#00558f" stroke-miterlimit="2.414" stroke-width="0.003" fill-rule="evenodd"/>
      <path id="Path_4878" data-name="Path 4878" d="M314.673,397.675l-.124-.064-.2-.069-.153.015-.109.094-.059.2.109.178.2.01.213-.035.168-.05.015-.163-.059-.119Z" transform="translate(-266.705 -361.904)" fill="#00558f" stroke="#00558f" stroke-miterlimit="2.414" stroke-width="0.003" fill-rule="evenodd"/>
      <path id="Path_4879" data-name="Path 4879" d="M291,397.97l-.178-.089-.015-.069.119-.074,2.392-1.174.139-.183.168-.04.119.163.045.213.015.079.015.079-.045.163-.168-.163-.248.03-.228.129-.228.148-.025.168.03.317.01.317.039.262.06.149.114.039.317.089.3.1.173.119.05.129-.025.223-.02.074-.223-.164-.233-.208-2.094-.7L291,397.97Z" transform="translate(-285.705 -362.886)" fill="#fff" stroke="#fff" stroke-miterlimit="2.414" stroke-width="0.003" fill-rule="evenodd"/>
      <path id="Path_4880" data-name="Path 4880" d="M291.214,397.325l.069.114.149.094.193.079.193.069.317.1.149.005.084-.139.03-.258,0-.178-.015-.2-.069-.139-.158.005-.946.446Z" transform="translate(-285.371 -362.45)" fill="#00558f" stroke="#00558f" stroke-miterlimit="2.414" stroke-width="0.003" fill-rule="evenodd"/>
      <path id="Path_4881" data-name="Path 4881" d="M319.765,397.272l-.084-.064-.015-.153v-.01l.015-.153.064-.064h.159l.866.064.159-.01.069-.094.015-.233V395.6L321,395.42l-.064-.079-.158-.015-.257-.005-.248.01-.243.045-.228.109-.173.094-.054-.03.02-.129.03-.2-.01-.248-.03-.262.025-.1.089.055.153.208.124.119.168.025L320.4,395l.282.005.3.01h.3l.3-.015.287-.04.263-.064.233-.1.139-.064.069-.01.01.069,0,.178v.2l-.005.2-.064.089-.183-.119-.218-.089-.277.01-.258.025-.173.015-.1.064-.03.144.01.252.01.317.02.317.045.233.064.134.119.055.193.015.238.005.238-.005.173-.094.064-.183.054-.025.084.02.015.084,0,.238.02.223-.01.253-.168.079-.109-.149-.129-.129-2.233.124Z" transform="translate(-262.171 -364.308)" fill="#fff" stroke="#fff" stroke-miterlimit="2.414" stroke-width="0.003" fill-rule="evenodd"/>
      <path id="Path_4882" data-name="Path 4882" d="M308.532,394.66h-.188l-13.1,2.545-.025.02-.01.03.015.03.03.005L307.9,397.2l.2-.035.04-.183-.015-.322.015-.317.376-1.5.015-.183Z" transform="translate(-282.1 -364.261)" fill="#00558f" stroke="#00558f" stroke-miterlimit="2.414" stroke-width="0.003" fill-rule="evenodd"/>
      <path id="Path_4883" data-name="Path 4883" d="M312.6,398.1l.188-.015.1-.059.035-.124-.02-.218-.163-.827-.262-.738-.356-.649-.436-.559-.5-.471-.555-.386-.6-.292-.634-.208-.654-.119-.663-.03-.664.054-.649.144-.629.228-.584.317-.545.4-.48.49-.411.57-.327.659-.233.748-.129.827-.015.258.045.109.114.02,9.032-.129Z" transform="translate(-275.39 -365.284)" fill="#00558f" stroke="#00558f" stroke-miterlimit="2.414" stroke-width="0.003" fill-rule="evenodd"/>
      <path id="Path_4884" data-name="Path 4884" d="M309.643,394.608l-.059.059-.005.164.045.287.307,1.768.04.158.079.069.158.01,12.627-.1.045-.015.015-.04-.01-.04-.04-.02-13.068-2.293-.134-.01Z" transform="translate(-270.346 -364.304)" fill="#00558f" stroke="#00558f" stroke-miterlimit="2.414" stroke-width="0.003" fill-rule="evenodd"/>
      <path id="Path_4885" data-name="Path 4885" d="M293.284,396.329l.124-.015.064-.089.035-.218.03-.213.03-.243,0-.238-.054-.218-.129-.173-.129-.124-.01-.094.1-.015.258.074.233.119.03.178-.119,1.421.039.3-.025.258-.178-.173-.3-.173-1.9-.1-.193,0-.1.064-.059.153-.064.149-.074.045-.04-.1,0-.267-.01-.178-.02-.243,0-.228.03-.144.084,0,.168.233.064.089.069.074,2.06.079Z" transform="translate(-285.703 -364.237)" fill="#fff" stroke="#fff" stroke-miterlimit="2.414" stroke-width="0.003" fill-rule="evenodd"/>
      <path id="Path_4886" data-name="Path 4886" d="M320.108,387.568l-.02-.035-.04-.02-.04.01-12.364,8.992-.119.109,0,.074.134.094.926.515.134.079.134.089.139.094.139.109.144.114.139.119.139.129.139.134.134.139.129.144.124.149.124.153.109.154.109.153.094.154.089.158.074.154.064.154.054.153.04.154.059.114.119.06.114-.035.144-.159,8.819-12.364.015-.04Z" transform="translate(-272.026 -370.108)" fill="#00558f" stroke="#00558f" stroke-miterlimit="2.414" stroke-width="0.003" fill-rule="evenodd"/>
      <path id="Path_4887" data-name="Path 4887" d="M309.919,396.765l.119-.114.025-.1-.054-.089-.139-.114-12.018-8.586-.243-.149.139.228,8.636,12.072.159.178.134.049.129-.074.1-.173.074-.183.1-.208.119-.223.139-.228.154-.233.159-.228.163-.213.163-.188.159-.159.153-.124,1.411-.985.213-.158Z" transform="translate(-280.139 -370.025)" fill="#00558f" stroke="#00558f" stroke-miterlimit="2.414" stroke-width="0.003" fill-rule="evenodd"/>
      <path id="Path_4888" data-name="Path 4888" d="M298.849,389.989l-.03.01-.02.03.01.035,3.62,5.833.089.163.005.1-.094.069-.208.064-6.611,1.793-.045.025,0,.045.02.045.044.015,11.043-.238.287-.015.079-.05-.094-.119L298.878,390l-.03-.015Z" transform="translate(-281.814 -368.083)" fill="#00558f" stroke="#00558f" stroke-miterlimit="2.414" stroke-width="0.003" fill-rule="evenodd"/>
      <path id="Path_4889" data-name="Path 4889" d="M298.3,394.276l0,.218-.069.153-.168.173-1.971,1.812-.233.248-.228.292-.2.307-.168.3-.134.287-.02.119.109-.04.257-.183.243-.183.253-.183.262-.178.272-.178.282-.168.292-.168.3-.158.3-.149.307-.139.317-.124.317-.119.317-.1.322-.089.327-.069.322-.054.322-.035.322-.015.317.01.317.025.312.054.248.03.1-.035-.04-.109-.178-.218-.233-.228-.2-.168-.183-.139-.183-.144-.193-.183-.223-.252-.267-.362-.119-.178-.119-.183-.109-.183-.109-.183-.1-.188-.1-.193-.094-.193-.089-.193-.084-.2-.079-.2-.074-.2-.069-.2-.069-.2-.06-.208-.054-.208-.049-.208-.044-.213-.04-.213-.035-.213-.03-.213-.054-.238-.079-.084-.084.079-.074.243-.1.475-.054.475.139,3.169Z" transform="translate(-282.187 -368.21)" fill="#00558f" stroke="#00558f" stroke-miterlimit="2.414" stroke-width="0.003" fill-rule="evenodd"/>
      <path id="Path_4890" data-name="Path 4890" d="M320.134,393.017l.2-.109.2-.079.2-.045.193-.015.188.01.178.045.178.064.163.084.153.109.144.129.134.144.114.158.1.173.089.183.069.193.049.2.03.208.01.213-.01.213-.074.158-.3.129-.282.089h-.109l.054-.1.218-.213.158-.2.06-.2v-.223l-.02-.248-.035-.262-.149-.2-.213-.148-.213-.114-.213-.079-.208-.054-.2-.02-.193,0-.183.03-.173.055-.159.079-.139.1-.124.124-.1.139-.079.153-.059.173-.03.188-.005.2.03.213.06.223.094.228.134.238.069.178-.049.1-.134-.035-.163-.233-.059-.109-.05-.114-.05-.114-.045-.114-.039-.114-.035-.119-.03-.114-.02-.119-.015-.114-.005-.119v-.114l.015-.114.02-.114.03-.109.04-.109.055-.109.064-.1.074-.1.089-.094.1-.094.2-.149Z" transform="translate(-262.277 -365.808)" fill="#fff" stroke="#fff" stroke-miterlimit="2.414" stroke-width="0.003" fill-rule="evenodd"/>
      <path id="Path_4891" data-name="Path 4891" d="M318.512,389.818l-.025-.035-.04-.015-.035.02-8.086,8.012-.149.163.02.074.2.015h11.191l.05-.015.025-.05-.01-.049-.049-.03-6.769-1.639-.148-.054-.015-.1.109-.2,3.724-6.056.01-.045Z" transform="translate(-269.856 -368.263)" fill="#00558f" stroke="#00558f" stroke-miterlimit="2.414" stroke-width="0.003" fill-rule="evenodd"/>
      <path id="Path_4892" data-name="Path 4892" d="M313.318,395.721l-.084.1.079.035.287-.02.946-.089.169,0,.2.01.223.025.243.035.252.05.257.059.262.064.258.074.243.074.233.084.208.079.183.079.148.079,2.516,1.461.05.015.039-.03.025-.044-.02-.05-1.045-1.327-.213-.262-.188-.173-1.575-1.382-.188-.2-.025-.233.148-3.288-.045-.475-.094-.475-.079-.272-.079-.084-.079.089-.064.267-.035.178-.035.2-.04.2-.044.218-.049.223-.055.228-.06.238-.064.238-.069.238-.074.238-.079.233-.084.233-.089.223-.1.218-.1.208-.1.2-.109.183-.119.168-.119.154-.129.134-1.634,1.575Z" transform="translate(-267.355 -368.368)" fill="#00558f" stroke="#00558f" stroke-miterlimit="2.414" stroke-width="0.003" fill-rule="evenodd"/>
      <path id="Path_4893" data-name="Path 4893" d="M291.55,394.555l-.168.04-.188.114-.148.1-.055-.025.1-.247.059-.188.025-.163.04-.1.109-.02.228.089.2.089.228.089.248.079.257.069.263.054.253.035.238.01.218-.02.2-.045.143-.094.114-.163.124-.267.069-.272-.02-.292-.054-.2-.094-.139-.168-.1-.426-.154-.431-.134-.441-.119-.446-.084-.233-.055-.084-.094.025-.193.074-.267.06-.05.074.163.045.193.069.06.084.049.094.04.1.035.109.03.119.025.124.02.129.02.134.02.134.025.134.025.134.03.129.035.129.04.119.05.119.059.1.064.1.084.089.094.079.109.044.089.03.1.025.109.01.119,0,.129-.01.129-.015.134-.03.134-.035.134-.05.129-.054.124-.059.114-.074.1-.079.094-.089.079-.094.064-.1.05-.109.025-.119,0-.124-.015-1.738-.406Z" transform="translate(-285.553 -366.567)" fill="#fff" stroke="#fff" stroke-miterlimit="2.414" stroke-width="0.003" fill-rule="evenodd"/>
      <path id="Path_4894" data-name="Path 4894" d="M321.4,391.35l.089-.129.144-.183.114.05.5,1.728.025.148-.059.089-.173.079-.218.069-.094,0,.01-.089.1-.149.1-.213-.01-.238-.074-.242-.069-.243-.064-.248-.064-.109-.114.01-.3.069-.158.039-.139.04-.109.049-.079.064-.045.094v.134l.04.173.149.426.064.089.109.04.039.064-.084.045-.263.114-.183.074-.079,0v-.079l.079-.144.045-.2-.05-.218-.064-.213-.084-.287-.134-.02-.951.292-.055.07.064.262.094.4.153.376.158.159.213.079.154.054.04.079-.094.059-.258-.005-.257-.045-.124-.064-.059-.129-.357-1.337-.015-.129.054-.089.154-.079.287-.089,1.9-.55Z" transform="translate(-262.636 -367.225)" fill="#fff" stroke="#fff" stroke-miterlimit="2.414" stroke-width="0.003" fill-rule="evenodd"/>
      <path id="Path_4895" data-name="Path 4895" d="M304.664,399.148l-.015.2.074.064.208-.03,1.114-.267.208-.045.233-.039.243-.025.253-.02.258-.015h.257l.253.015.243.02.228.035.208.049.951.263.2.04.074-.055-.01-.183-2.332-14.731-.045-.253-.039-.1-.04.049-.054.223-.069.4-2.4,14.41Z" transform="translate(-274.379 -372.929)" fill="#00558f" stroke="#00558f" stroke-miterlimit="2.414" stroke-width="0.003" fill-rule="evenodd"/>
      <path id="Path_4896" data-name="Path 4896" d="M308.059,385.588l-.054-.025-.055.01-.03.049-1.644,6.6-.069.233-.069.114-.089.015-.144-.069-5.576-3.323-.253-.144-.109-.044.04.079.193.218.361.366,7.24,7.269.144.124.064-.035.015-.208.049-11.181-.015-.05Z" transform="translate(-278.209 -371.703)" fill="#00558f" stroke="#00558f" stroke-miterlimit="2.414" stroke-width="0.003" fill-rule="evenodd"/>
      <path id="Path_4897" data-name="Path 4897" d="M291.634,392.241l-.025-.1.035-.1.089-.059,2.293-.693.193-.064.089-.06-.025-.064-.144-.079-.267-.109-1.07-.426-.238-.025-.213-.049-.049-.193.1-.173.168-.119.139.01.079.148.173.188,1.847.817.238.119.01.079-.2.084-2.382.738-.258.094-.039.064.158.074,1.718.654.154-.055.173-.089.074.094-.04.079-.054.079-.1.248-.049.129-.025.03-.025-.039-.059-.089-.119-.114-.208-.114-2.05-.837-.084-.069Z" transform="translate(-285.048 -368.14)" fill="#fff" stroke="#fff" stroke-miterlimit="2.414" stroke-width="0.003" fill-rule="evenodd"/>
      <path id="Path_4898" data-name="Path 4898" d="M307.9,385.821l-.069-.262-.045-.1-.025.079-.015.267-.005.48-.084,10.617.01.173.06.02.134-.114,8.121-8.111.025-.044-.02-.05-.039-.025-.05.01-5.967,3.679-.213.114-.129.025-.074-.079-.059-.188-1.555-6.492Z" transform="translate(-271.917 -371.788)" fill="#00558f" stroke="#00558f" stroke-miterlimit="2.414" stroke-width="0.003" fill-rule="evenodd"/>
      <path id="Path_4899" data-name="Path 4899" d="M320.773,390.519l.173-.084.074-.089-.015-.129-.1-.193-.109-.2-.168-.134-.258-.109-.084-.045.055-.054.144-.039.228-.03.143.025.1.094.084.183.639,1.57-.025.342-.233.188-.183,0,.134-.243.059-.134-.074-.3-.079-.228-.074-.114-.1-.025-.149.05-2.07.847-.149.04-.089-.06-.079-.193.054-.025.282-.119,1.867-.787Z" transform="translate(-262.99 -368.553)" fill="#fff" stroke="#fff" stroke-miterlimit="2.414" stroke-width="0.003" fill-rule="evenodd"/>
      <path id="Path_4900" data-name="Path 4900" d="M294.878,390.376l.134-.02.168-.054.1.03-.079.223-.045.079-.035.079-.124.243-.064.079-.1-.044-.069-.119-.089-.1-.188-.143-.263-.173-.307-.183-.327-.178-.322-.158-.277-.124-.218-.079-.124-.01-.2.064h-.089l.035-.089.124-.253.069-.144.064-.149.114-.193.074.03.064.153.079.2.124.134,1.773.9Z" transform="translate(-284.435 -368.925)" fill="#fff" stroke="#fff" stroke-miterlimit="2.414" stroke-width="0.003" fill-rule="evenodd"/>
      <path id="Path_4901" data-name="Path 4901" d="M318.675,389.342l.213-.04.322-.074.312-.109.149-.054.094.044.1.168.124.208.05.139-.2-.055-.3-.074-.332.005-.317.015-.2.015-.114.054-.05.129-.005.223.015.163.094.129.153.163.005.114-.129.02-.258-.139-.168-.173-.059-.2-.01-.258-.015-.252-.069-.109-.163-.02-.223-.064-.178-.159-.153-.2-.079-.139-.039-.149-.01-.109v-.1l.02-.1.025-.094.04-.089.049-.079.06-.074.069-.069.074-.059.079-.05.084-.039.089-.03.094-.025.094-.01h.1l.094.01.1.025.094.035.089.044.089.064.153.094.119-.015.149-.149.139-.139.153-.129.168-.1.188-.05.2.01.2.084.159.143.114.193.045.159,0,.143-.045.129-.074.109-.109.094-.139.064-.159.04-.3.01-.1-.094.054-.1.188-.035.193-.035.129-.084.064-.124.015-.138-.035-.134-.079-.109-.109-.069-.144-.005-.168.074-.183.173-.069.208-.01.2-.074.045-.1.035-.218.257-.163.3-.084.153-.035.163.064.064Z" transform="translate(-264.087 -370.184)" fill="#fff" stroke="#fff" stroke-miterlimit="2.414" stroke-width="0.003" fill-rule="evenodd"/>
      <path id="Path_4902" data-name="Path 4902" d="M299.829,388.495l-.054.03-.025.054.015.064.055.035,2.956.847.158.05.154.059.163.069.159.079.159.084.158.094.159.1.159.109.153.109.153.119.149.119.144.129.144.124.134.129.134.134.124.134.119.129.109.134.1.134.094.129.213.272.1.079.059-.074,0-.134-.069-.322-.045-.332-.025-.337-.005-.347.015-.352.03-.352.054-.357.064-.357.084-.356.1-.357.114-.347.129-.342.144-.337.158-.327.168-.317.178-.307.188-.292.2-.272.208-.262.218-.243.114-.154v-.094l-.109.005-.243.124-.228.148-.218.159-.208.163-.2.173-.193.178-.188.188-.188.188-.178.2-.178.193-.178.2-.173.2-.178.2-.178.2-.178.193-.183.2-.188.188-.188.149-.233.064-.317.015-.317-.01-.317-.02-.317-.03-.317-.035-.317-.025-.322-.015h-.317l-.317.03-1.505.2Z" transform="translate(-278.388 -372.105)" fill="#00558f" stroke="#00558f" stroke-miterlimit="2.414" stroke-width="0.003" fill-rule="evenodd"/>
      <path id="Path_4903" data-name="Path 4903" d="M311.669,388.256h-.233l-.148-.049-.139-.134-2.139-2.337-.386-.277-.426-.257-.243-.109h-.109l.035.109.168.253.119.153.119.168.124.178.124.193.124.193.124.2.124.213.124.213.119.223.114.223.1.223.1.228.094.228.084.228.074.223.059.223.054.213.034.213.025.208.01.2v1.743l0,.213.04.084.084-.03.153-.139,1.292-1.258.134-.119.158-.119.173-.114.193-.114.2-.109.218-.1.228-.1.238-.094.243-.094.248-.089.248-.084.253-.074.248-.074.242-.064.238-.06.233-.054.223-.049.213-.04.193-.035.183-.025.3-.064.094-.1-.06-.1-.178-.05-.47-.064-.5-.084-.46-.03-2.852.158Z" transform="translate(-271.763 -372.089)" fill="#00558f" stroke="#00558f" stroke-miterlimit="2.414" stroke-width="0.003" fill-rule="evenodd"/>
      <path id="Path_4904" data-name="Path 4904" d="M294.971,389.531l.263.064.148.015.05-.04-.045-.1-.129-.168-.9-1.109-.124-.129-.134-.114-.114-.06-.124.1-.049-.015-.045-.06.025-.064.109-.138.079-.168.079-.149.069.079.322.426,1.416,1.867.134.2-.03.064-.208-.025-2.53-.515-.193.025-.238.015.015-.153.089-.109.084-.114.074-.109.06-.119.079-.139.084.084.1.173.154.124,1.421.362Z" transform="translate(-284.067 -370.204)" fill="#fff" stroke="#fff" stroke-miterlimit="2.414" stroke-width="0.003" fill-rule="evenodd"/>
      <path id="Path_4905" data-name="Path 4905" d="M318.261,388.646l.094-.262.074-.168.064-.148.01-.129-.064-.094-.178-.054-.158-.015-.159-.005-.153.02-.139.04-.114.079-.084.119-.04.173.005.124.025.134.049.139.069.134.084.109.1.084.119.04.129-.015.144-.074.119-.228Z" transform="translate(-263.935 -369.899)" fill="#00558f" stroke="#00558f" stroke-miterlimit="2.414" stroke-width="0.003" fill-rule="evenodd"/>
      <path id="Path_4906" data-name="Path 4906" d="M296.312,389.159l-.119.109-.119-.015-.193-.144-1.585-1.332-.139-.064-.153-.025-.2-.069.069-.094.2-.154.188-.129.1-.2.149-.287.218-.257.228-.233.263-.144.228.044.144.139.015.134-.173.025-.213-.025-.159.074-.2.2-.089.1-.089.1-.084.094-.074.094-.049.094-.025.089.01.1.045.094.094.1.144.109.168.1.124.074.1.04.069,0,.06-.025.054-.054.064-.094.074-.119.094-.153.1-.208.04-.153.02-.094.035-.02.094.059.2.149.119.134-.035.079-.143.074-.2.1-.213.164-.109.144-.045.124.01.114.054.1.089.094.114.094.124.084.129.089.252.168.1.049.139-.069.119-.149.223-.307.213-.312.06-.163-.035-.168-.035-.352.168.1.149.347-.1.4-.871,1.015Z" transform="translate(-283.254 -371.249)" fill="#fff" stroke="#fff" stroke-miterlimit="2.414" stroke-width="0.003" fill-rule="evenodd"/>
      <path id="Path_4907" data-name="Path 4907" d="M317.484,387.146l-.079-.317-.079-.312-.025-.322.039-.153.079-.139.084-.094.084-.074.084-.064.089-.044.094-.03.094-.02.094-.005.094.01.094.02.089.03.089.04.089.05.079.059.079.064.074.074.069.079.064.084.054.089.045.1.039.1.015.233-.139.163-.208.094-.129-.03.025-.045.064-.045.069-.1.04-.124-.049-.2-.134-.183-.149-.154-.114-.1-.124-.054-.129,0-.114.035-.1.074-.069.119-.035.153v.2l.035.2.045.2.055.2.039.2.015.2-.025.2-.074.2-.069.114-.074.094-.084.074-.089.06-.094.045-.1.025-.1.01h-.1l-.1-.015-.1-.03-.1-.035-.1-.05-.1-.055-.094-.064-.094-.074-.084-.074-.079-.084-.069-.089-.059-.089-.054-.094-.045-.257.084-.218.149-.163.149-.074.084.05-.04.188-.084.243-.01.173.079.153.188.183.114.084.119.064.114.039.114.015.1-.01.094-.035.084-.064.069-.094.054-.124.03-.154-.015-.317Z" transform="translate(-265.089 -371.697)" fill="#fff" stroke="#fff" stroke-miterlimit="2.414" stroke-width="0.003" fill-rule="evenodd"/>
      <path id="Path_4908" data-name="Path 4908" d="M295.55,386.374l-.238-.139-.248-.1-.025-.129.951-.951.109-.079.109-.05.119-.01.119.015.114.039.114.064.1.074.094.094.079.1.069.1.05.109.025.1.01.228-.074.1-.119-.069-.143-.272-.124-.2-.193-.114h-.223l-.2.054-.2.1-.188.163-.074.154.049.163.163.193.124.143.124.153.129.119.139.04.168-.084.114-.084.109-.064.1-.049.1-.03.1-.015h.1l.1.005.094.015.1.025.094.025.1.03.094.03.1.025.1.025.1.02.1.005h.109l.109-.01.119-.025.119-.044.153-.045.079.02-.069.094-.228.247-.183.114-.228-.01-.48-.079-.47-.119-.243-.05-.233.064-.114.074-.044.079.02.1.1.149.173.213.129.124.129.084.119.064.094.05.06.06v.079l-.06.109-.144.159-.238.233-.084.069-.02-.079.04-.183.015-.069v-.069l-1.258-1.485Z" transform="translate(-282.24 -372.232)" fill="#fff" stroke="#fff" stroke-miterlimit="2.414" stroke-width="0.003" fill-rule="evenodd"/>
      <path id="Path_4909" data-name="Path 4909" d="M314.929,386.509l-.124-.129-.025-.069.074-.025.173.02.213-.02.178-.119,1.218-1.357.124-.188-.035-.114-.035-.2.02-.074.045-.04.045.04.134.124,1.238,1.134.129.158.02.129-.1.1-.168.02-.089-.178-.114-.243-.188-.218-.2-.183-.168-.129-.134-.045-.109.05-.2.163-.119.109-.1.094-.084.094-.064.079-.04.079-.01.074.015.074.044.074.074.074.114.084.149.084.143.05.149.02.139,0,.094.025.035.054-.054.114-.163.2-.188.183-.089.045-.049-.074.01-.129-.049-.218-.193-.163-.208-.173-.134-.1-.124.01-.114.089-.1.139-.109.153-.114.134-.124.134-.054.109.015.109.089.129.168.168.178.163.188.139.213.089.238.005.233-.02.094.04-.069.089-.243.144-.178.069-.119-.01-.134-.094-1.268-1.149Z" transform="translate(-266.09 -372.822)" fill="#fff" stroke="#fff" stroke-miterlimit="2.414" stroke-width="0.003" fill-rule="evenodd"/>
      <path id="Path_4910" data-name="Path 4910" d="M297.321,385.157l.287-.054.292-.06.292-.035.287.035.253.134.183.223.055.114.04.109.02.1.005.1-.005.094-.02.094-.03.089-.045.084-.049.084-.064.079-.064.074-.074.069-.079.069-.084.059-.089.059-.089.059-.089.05-.089.05-.188.079-.119-.01-.129-.109-.218-.252-.055-.114.119-.01.273.084.158.04h.154l.149-.035.139-.069.114-.1.089-.124.054-.153.015-.173-.035-.154-.079-.129-.119-.1-.149-.064-.173-.03-.327.03-.317.069-.317.045-.332-.04-.218-.079-.109-.114-.059-.2-.015-.114,0-.114,0-.114.015-.1.025-.1.035-.1.05-.094.055-.089.064-.084.069-.079.079-.069.089-.064.094-.055.1-.05.109-.04.114-.03.253.059.149.183-.015.158-.228-.03-.178-.074-.134-.01-.134.069-.163.158-.084.1-.079.109-.06.114-.04.119-.01.109.025.1.069.084.114.059.173.035.292,0Z" transform="translate(-281.075 -373.134)" fill="#fff" stroke="#fff" stroke-miterlimit="2.414" stroke-width="0.003" fill-rule="evenodd"/>
      <path id="Path_4911" data-name="Path 4911" d="M313.774,384.441l.079-.213.094-.193.109-.163.124-.144.134-.119.144-.094.153-.074.159-.05.168-.03.173-.01.173.01.178.035.178.049.178.064.178.084.173.1.168.119.158.134.159.153.134.154.059.124-.015.134-.074.183-.114.178-.094.039-.069-.074v-.159l.01-.114,0-.1-.02-.1-.03-.1-.044-.094-.06-.089L316.27,384l-.074-.074-.084-.069-.089-.059-.1-.054-.1-.045-.1-.035-.1-.025-.109-.02-.109,0h-.1l-.1.015-.1.025-.094.039-.154.079-.139.1-.129.1-.114.124-.1.129-.084.134-.064.144-.054.149-.035.149-.02.153v.149l.02.149.035.144.054.139.074.134.1.119.114.109.139.1.159.084.183.069.168.084.03.1-.114.06-.267-.05-.109-.035-.1-.045-.1-.05-.094-.054-.094-.06-.084-.064-.084-.074-.074-.074-.069-.079-.064-.084-.054-.089-.05-.094-.045-.1-.035-.1-.025-.1-.02-.1-.01-.114v-.109l.01-.114.02-.119.064-.243Z" transform="translate(-266.99 -373.513)" fill="#fff" stroke="#fff" stroke-miterlimit="2.414" stroke-width="0.003" fill-rule="evenodd"/>
      <path id="Path_4912" data-name="Path 4912" d="M299.3,385.559l.064.144-.035.109-.159.139-.168.109-.084.02-.03-.074.03-.134-.025-.134-.109-.258-.168-.332-.208-.366-.213-.366-.2-.312-.168-.233-.1-.1-.154-.1.04-.119.149-.124.178-.109.129-.084.218-.168.03.055-.069.173-.084.213-.01.153,1.154,1.9Z" transform="translate(-280.177 -373.749)" fill="#fff" stroke="#fff" stroke-miterlimit="2.414" stroke-width="0.003" fill-rule="evenodd"/>
      <path id="Path_4913" data-name="Path 4913" d="M312.338,384.635l-.129.173-.149.059-.168-.064-.119-.114-.03-.124.064-.124.094.01.144.035.168-.163.911-1.743.055-.169-.079-.149-.089-.139-.01-.074h.069l.163.069.188.064.119.059.069.168.52,2.4.054.193.069-.005.124-.213.619-1.228.064-.178-.06-.139-.079-.159.015-.1.1,0,.238.094.317.163.1.084-.069.089-.188.05-.158.049-.069.149-.98,1.906-.134.228-.079,0-.059-.213-.584-2.689-.045-.129-.069.045-.134.243-.787,1.575Z" transform="translate(-268.574 -374.578)" fill="#fff" stroke="#fff" stroke-miterlimit="2.414" stroke-width="0.003" fill-rule="evenodd"/>
      <path id="Path_4914" data-name="Path 4914" d="M300.064,382.357l.178-.06.149.03.119.119.089.218-.069.149-.054-.074-.064-.084-.173-.064-.168.03-.173.074-.208.109-.1.094,0,.114.074.163.936,1.743.094.084.243-.005.094.015.064.06-.252.223-.317.148-.263.139-.1.03,0-.079.079-.129.094-.173-.045-.159-.941-1.718-.084-.119-.089-.045-.144.035-.218.1-.213.138-.04.178-.054.322h-.114l-.114-.193-.044-.253.1-.183,1.743-.981Z" transform="translate(-279.637 -374.375)" fill="#fff" stroke="#fff" stroke-miterlimit="2.414" stroke-width="0.003" fill-rule="evenodd"/>
      <path id="Path_4915" data-name="Path 4915" d="M301.679,383.018v-.168l.069-.317.059-.317-.049-.317-.03-.114.089-.089.243-.114.158-.054.079,0v.074l-.064.134-.064.109-.054.114-.054.119-.05.124-.039.129-.035.129-.03.134-.025.134-.02.134-.01.134-.005.139v.134l.005.134.015.134.025.129.03.129.035.124.045.119.054.114.06.109.089.178,0,.124-.094.1-.213.114-.139.05-.079-.01-.01-.079.055-.144.035-.1.01-.1-.015-.109-.04-.119-.055-.119-.069-.119-.089-.124-.1-.124-.109-.124-.119-.119-.124-.114-.129-.109-.129-.1-.129-.094-.129-.089-.124-.074-.119-.069-.109-.05-.1-.04-.084-.025-.119-.054-.044-.084.079-.069.243-.1.178-.035.119.06.139.188.317.282.371.233.228.144.153-.064.015-.148Z" transform="translate(-278.316 -375.006)" fill="#fff" stroke="#fff" stroke-miterlimit="2.414" stroke-width="0.003" fill-rule="evenodd"/>
      <path id="Path_4916" data-name="Path 4916" d="M311.295,381.986l-.01-.193-.074-.218-.005-.148.183.01,1.6.6.1.06.025.119-.03.238-.045.129-.079.04-.074-.05-.025-.134-.01-.178-.05-.109-.1-.059-.193-.035-.143-.025-.124-.03-.1-.035-.089-.03-.084-.02-.069-.015h-.059l-.059.02-.06.044-.054.069-.059.1-.064.134-.074.178-.079.248.025.114.148.05.238.064.238.079.233.084.134.1.03.119-.1.149-.218.025-.055-.069-.05-.089-.139-.1-.154-.069-.262-.1-.159-.025-.089.06-.06.144-.143.4-.094.406.025.188.148.035.327.064.307.134.228.064.223-.089.267-.119.114-.015-.04.1-.183.228-.154.148-.134.04-.183-.054-1.089-.446-.149-.069-.079-.074-.025-.1.03-.144.074-.208.684-1.743Z" transform="translate(-269.586 -375.088)" fill="#fff" stroke="#fff" stroke-miterlimit="2.414" stroke-width="0.003" fill-rule="evenodd"/>
      <path id="Path_4917" data-name="Path 4917" d="M309.944,384.011l-.139.01-.119-.079-.01-.138.6-2.233-.03-.1-.06-.079-.084-.129.025-.089.129-.025.233.054.228.1.1.079.015.069-.054.074-.089.089-.089.119-.069.153-.515,2.006-.074.119Z" transform="translate(-270.266 -375.315)" fill="#fff" stroke="#fff" stroke-miterlimit="2.414" stroke-width="0.003" fill-rule="evenodd"/>
      <path id="Path_4918" data-name="Path 4918" d="M302.6,383.386l-.089-.213-.06-.218-.03-.223v-.218l.025-.223.049-.213.074-.2.1-.193.119-.178.134-.163.154-.139.168-.119.178-.094.193-.059.2-.03.213.005.218.045.218.089.228.129.252.208.188.223.129.233.074.248.025.253-.02.248-.064.247-.1.238-.134.223-.163.208-.183.183-.2.153-.218.129-.228.089-.233.049-.233.005-.233-.044-.223-.1-.208-.153-.193-.223-.129-.2Z" transform="translate(-276.199 -375.518)" fill="#fff" stroke="#fff" stroke-miterlimit="2.414" stroke-width="0.003" fill-rule="evenodd"/>
      <path id="Path_4919" data-name="Path 4919" d="M307.893,382.4l.02-.193.039-.183.064-.173.084-.163.1-.154.114-.139.129-.124.144-.109.154-.094.163-.079.168-.059.173-.044.178-.025.183-.01.183.015.183.035.178.054.173.079.173.1.168.149.054.208-.03.3-.084.1-.109-.05-.069-.183-.054-.183-.084-.149-.109-.114-.134-.079-.149-.055-.163-.025-.168.005-.173.035-.173.055-.173.084-.164.1-.148.129-.139.144-.114.168-.089.183-.064.2-.03.213.01.233.045.243.094.258.114.183.178.119.282.119.277.064.282.025.307.005.292.015.1.045-.059.064-.178.05-.144.02-.144.015-.149.01-.144.005-.144-.005-.144-.01-.139-.02-.134-.025-.134-.035-.124-.05-.119-.055-.114-.064-.1-.079-.094-.089-.084-.1-.074-.114-.059-.129-.05-.144-.035-.158-.025-.173v-.2Z" transform="translate(-271.725 -375.556)" fill="#fff" stroke="#fff" stroke-miterlimit="2.414" stroke-width="0.003" fill-rule="evenodd"/>
      <path id="Path_4920" data-name="Path 4920" d="M304.777,382.812l0-.079.025-.381-.03-.327-.079-.277-.119-.223-.149-.178-.178-.129-.193-.084-.208-.044h-.208l-.213.035-.2.079-.188.109-.164.144-.134.173-.094.208-.054.233,0,.262.049.282.119.307.188.327.2.213.277.119.337.035.337-.025.193-.074.124-.129.1-.178.124-.159.114-.158.02-.079Z" transform="translate(-276.061 -375.364)" fill="#00558f" stroke="#00558f" stroke-miterlimit="2.414" stroke-width="0.003" fill-rule="evenodd"/>
      <path id="Path_4921" data-name="Path 4921" d="M304.6,381.038l-.109-.035-.114,0-.015-.173.168-.035.164.005,1.426-.154.2.015.139.079.084.119.03.134-.02.134-.074.1-.119.054-.045-.089-.049-.109-.178-.114-.258-.03-.272.01-.228.015-.2.015-.114.04-.045.074,0,.109.02.139.025.178.01.208.025.163.084.1.2.04.253,0,.193-.03.173-.149.129-.139.074-.03.02.084-.025.218.01.248-.02.3-.134-.074-.015-.079-.025-.079-.228-.084-.248.02-.243.035-.129.059-.045.109.005.178.01.282.025.352.1.213.129.144-.168.079-.159-.02-.159.02-.193.03v-.094l.074-.173.045-.2-.178-2.218Z" transform="translate(-274.613 -375.73)" fill="#fff" stroke="#fff" stroke-miterlimit="2.414" stroke-width="0.003" fill-rule="evenodd"/>
      <path id="Path_4922" data-name="Path 4922" d="M307.3,383.711l-.4-.069-.213-.074-.119-.094-.054-.143-.01-.228.03-.173.079-.069.1.049.084.178.059.143.084.109.1.074.119.049.129.02.139-.01.139-.03.144-.05.124-.079.084-.094.05-.109.02-.119-.01-.119-.04-.119-.064-.114-.084-.094-.109-.079-.079-.049-.084-.05-.089-.054-.094-.064-.089-.059-.089-.069-.089-.069-.079-.074-.079-.074-.069-.079-.059-.084-.045-.084-.04-.084-.02-.089-.01-.089.01-.094.03-.094.049-.1.069-.1.094-.1.134-.109.149-.079.153-.055.159-.03h.163l.163.02.163.049.153.074.193.2.054.238-.054.178-.114.03-.143-.213-.119-.272-.114-.114-.164-.01-.247.03-.2.129-.1.114-.074.124-.045.119-.015.119.025.109.064.1.1.089.149.079.1.044.109.055.114.059.109.07.1.079.1.084.094.089.084.094.069.1.055.109.04.114.02.119-.005.119-.025.129-.094.183-.158.173-.188.144-.193.079-.4.03Z" transform="translate(-272.859 -375.734)" fill="#fff" stroke="#fff" stroke-miterlimit="2.414" stroke-width="0.003" fill-rule="evenodd"/>
    </g>
  </g>
</svg>
